<svg width="54" height="54" viewBox="0 0 54 54" fill="none" xmlns="http://www.w3.org/2000/svg">
<g filter="url(#filter0_ii_17_77)">
<path d="M44.847 4.11415H9.95793C6.6028 4.11415 3.88293 6.83402 3.88293 10.1892V45.0782C3.88293 48.4333 6.6028 51.1532 9.95793 51.1532H44.847C48.2021 51.1532 50.922 48.4333 50.922 45.0782V10.1892C50.922 6.83402 48.2021 4.11415 44.847 4.11415Z" fill="url(#paint0_linear_17_77)"/>
<path d="M44.847 4.11415H9.95793C6.6028 4.11415 3.88293 6.83402 3.88293 10.1892V45.0782C3.88293 48.4333 6.6028 51.1532 9.95793 51.1532H44.847C48.2021 51.1532 50.922 48.4333 50.922 45.0782V10.1892C50.922 6.83402 48.2021 4.11415 44.847 4.11415Z" fill="url(#paint1_radial_17_77)"/>
</g>
<g filter="url(#filter1_f_17_77)">
<path d="M48.0752 8.3329V46.9345" stroke="url(#paint2_linear_17_77)" stroke-width="1.5" stroke-linecap="round"/>
</g>
<g filter="url(#filter2_f_17_77)">
<path d="M9.72839 7.17187H46.4838" stroke="url(#paint3_linear_17_77)" stroke-width="1.5" stroke-linecap="round"/>
</g>
<g filter="url(#filter3_f_17_77)">
<path d="M43.0177 24.6459C43.3383 24.9328 43.7433 25.0678 44.1314 25.0678C44.5871 25.0678 45.0258 24.8821 45.3296 24.5278C45.9371 23.8528 45.8864 22.8065 45.2114 22.199L39.5921 17.1028C39.2903 16.8265 38.8959 16.6732 38.4868 16.6732C38.0776 16.6732 37.6832 16.8265 37.3814 17.1028L33.0108 21.0684C32.9264 21.1359 32.8083 21.1359 32.7239 21.0684L28.3533 17.1028C28.0515 16.8265 27.6572 16.6732 27.248 16.6732C26.8388 16.6732 26.4445 16.8265 26.1427 17.1028L21.7721 21.0684C21.6877 21.1359 21.5696 21.1359 21.4852 21.0684L17.1146 17.1028C16.8128 16.8265 16.4184 16.6732 16.0093 16.6732C15.6001 16.6732 15.2057 16.8265 14.9039 17.1028L9.28457 22.199C8.60957 22.8065 8.55895 23.8528 9.16645 24.5278C9.77395 25.2028 10.8202 25.2534 11.4952 24.6459L15.8658 20.6803C15.9502 20.6128 16.0683 20.6128 16.1527 20.6803L20.5402 24.6459C21.1646 25.2196 22.1264 25.2196 22.7508 24.6459L27.1214 20.6803C27.2058 20.6128 27.3239 20.6128 27.4083 20.6803L31.7789 24.6459C32.4033 25.2196 33.3652 25.2196 33.9896 24.6459L38.3602 20.6803C38.4446 20.6128 38.5627 20.6128 38.6471 20.6803L43.0177 24.6459ZM43.0177 38.1628C43.3383 38.4496 43.7433 38.5846 44.1314 38.5846C44.5871 38.5846 45.0258 38.399 45.3464 38.0446C45.9539 37.3696 45.9033 36.3234 45.2283 35.7159L39.6089 30.6196C39.3071 30.3433 38.9128 30.1901 38.5036 30.1901C38.0945 30.1901 37.7001 30.3433 37.3983 30.6196L33.0277 34.5853C32.9433 34.6528 32.8252 34.6528 32.7408 34.5853L28.3702 30.6196C28.0684 30.3433 27.6741 30.1901 27.2649 30.1901C26.8557 30.1901 26.4614 30.3433 26.1596 30.6196L21.7889 34.5853C21.7046 34.6528 21.5864 34.6528 21.5021 34.5853L17.1314 30.6196C16.8296 30.3433 16.4353 30.1901 16.0261 30.1901C15.617 30.1901 15.2226 30.3433 14.9208 30.6196L9.30145 35.7159C8.62645 36.3234 8.57582 37.3696 9.18332 38.0446C9.79082 38.7196 10.8371 38.7703 11.5121 38.1628L15.8827 34.1971C15.9671 34.1296 16.0852 34.1296 16.1696 34.1971L20.5402 38.1628C21.1646 38.7365 22.1264 38.7365 22.7508 38.1628L27.1214 34.1971C27.2058 34.1296 27.3239 34.1296 27.4083 34.1971L31.7789 38.1628C32.4033 38.7365 33.3652 38.7365 33.9896 38.1628L38.3602 34.1971C38.4446 34.1296 38.5627 34.1296 38.6471 34.1971L43.0177 38.1628Z" fill="#6A4EBE"/>
</g>
<g filter="url(#filter4_ii_17_77)">
<path d="M43.0177 24.6459C43.3383 24.9328 43.7433 25.0678 44.1314 25.0678C44.5871 25.0678 45.0258 24.8821 45.3296 24.5278C45.9371 23.8528 45.8864 22.8065 45.2114 22.199L39.5921 17.1028C39.2903 16.8265 38.8959 16.6732 38.4868 16.6732C38.0776 16.6732 37.6832 16.8265 37.3814 17.1028L33.0108 21.0684C32.9264 21.1359 32.8083 21.1359 32.7239 21.0684L28.3533 17.1028C28.0515 16.8265 27.6572 16.6732 27.248 16.6732C26.8388 16.6732 26.4445 16.8265 26.1427 17.1028L21.7721 21.0684C21.6877 21.1359 21.5696 21.1359 21.4852 21.0684L17.1146 17.1028C16.8128 16.8265 16.4184 16.6732 16.0093 16.6732C15.6001 16.6732 15.2057 16.8265 14.9039 17.1028L9.28457 22.199C8.60957 22.8065 8.55895 23.8528 9.16645 24.5278C9.77395 25.2028 10.8202 25.2534 11.4952 24.6459L15.8658 20.6803C15.9502 20.6128 16.0683 20.6128 16.1527 20.6803L20.5402 24.6459C21.1646 25.2196 22.1264 25.2196 22.7508 24.6459L27.1214 20.6803C27.2058 20.6128 27.3239 20.6128 27.4083 20.6803L31.7789 24.6459C32.4033 25.2196 33.3652 25.2196 33.9896 24.6459L38.3602 20.6803C38.4446 20.6128 38.5627 20.6128 38.6471 20.6803L43.0177 24.6459ZM43.0177 38.1628C43.3383 38.4496 43.7433 38.5846 44.1314 38.5846C44.5871 38.5846 45.0258 38.399 45.3464 38.0446C45.9539 37.3696 45.9033 36.3234 45.2283 35.7159L39.6089 30.6196C39.3071 30.3433 38.9128 30.1901 38.5036 30.1901C38.0945 30.1901 37.7001 30.3433 37.3983 30.6196L33.0277 34.5853C32.9433 34.6528 32.8252 34.6528 32.7408 34.5853L28.3702 30.6196C28.0684 30.3433 27.6741 30.1901 27.2649 30.1901C26.8557 30.1901 26.4614 30.3433 26.1596 30.6196L21.7889 34.5853C21.7046 34.6528 21.5864 34.6528 21.5021 34.5853L17.1314 30.6196C16.8296 30.3433 16.4353 30.1901 16.0261 30.1901C15.617 30.1901 15.2226 30.3433 14.9208 30.6196L9.30145 35.7159C8.62645 36.3234 8.57582 37.3696 9.18332 38.0446C9.79082 38.7196 10.8371 38.7703 11.5121 38.1628L15.8827 34.1971C15.9671 34.1296 16.0852 34.1296 16.1696 34.1971L20.5402 38.1628C21.1646 38.7365 22.1264 38.7365 22.7508 38.1628L27.1214 34.1971C27.2058 34.1296 27.3239 34.1296 27.4083 34.1971L31.7789 38.1628C32.4033 38.7365 33.3652 38.7365 33.9896 38.1628L38.3602 34.1971C38.4446 34.1296 38.5627 34.1296 38.6471 34.1971L43.0177 38.1628Z" fill="#FCF2FF"/>
</g>
<defs>
<filter id="filter0_ii_17_77" x="3.88293" y="3.11415" width="49.0391" height="48.0391" filterUnits="userSpaceOnUse" color-interpolation-filters="sRGB">
<feFlood flood-opacity="0" result="BackgroundImageFix"/>
<feBlend mode="normal" in="SourceGraphic" in2="BackgroundImageFix" result="shape"/>
<feColorMatrix in="SourceAlpha" type="matrix" values="0 0 0 0 0 0 0 0 0 0 0 0 0 0 0 0 0 0 127 0" result="hardAlpha"/>
<feOffset dx="2" dy="-1"/>
<feGaussianBlur stdDeviation="1.5"/>
<feComposite in2="hardAlpha" operator="arithmetic" k2="-1" k3="1"/>
<feColorMatrix type="matrix" values="0 0 0 0 0.298039 0 0 0 0 0.235294 0 0 0 0 0.6 0 0 0 1 0"/>
<feBlend mode="normal" in2="shape" result="effect1_innerShadow_17_77"/>
<feColorMatrix in="SourceAlpha" type="matrix" values="0 0 0 0 0 0 0 0 0 0 0 0 0 0 0 0 0 0 127 0" result="hardAlpha"/>
<feOffset dy="-1"/>
<feGaussianBlur stdDeviation="1.5"/>
<feComposite in2="hardAlpha" operator="arithmetic" k2="-1" k3="1"/>
<feColorMatrix type="matrix" values="0 0 0 0 0.352941 0 0 0 0 0.211765 0 0 0 0 0.709804 0 0 0 1 0"/>
<feBlend mode="normal" in2="effect1_innerShadow_17_77" result="effect2_innerShadow_17_77"/>
</filter>
<filter id="filter1_f_17_77" x="45.3252" y="5.5829" width="5.5" height="44.1016" filterUnits="userSpaceOnUse" color-interpolation-filters="sRGB">
<feFlood flood-opacity="0" result="BackgroundImageFix"/>
<feBlend mode="normal" in="SourceGraphic" in2="BackgroundImageFix" result="shape"/>
<feGaussianBlur stdDeviation="1" result="effect1_foregroundBlur_17_77"/>
</filter>
<filter id="filter2_f_17_77" x="6.97839" y="4.42187" width="42.2554" height="5.5" filterUnits="userSpaceOnUse" color-interpolation-filters="sRGB">
<feFlood flood-opacity="0" result="BackgroundImageFix"/>
<feBlend mode="normal" in="SourceGraphic" in2="BackgroundImageFix" result="shape"/>
<feGaussianBlur stdDeviation="1" result="effect1_foregroundBlur_17_77"/>
</filter>
<filter id="filter3_f_17_77" x="7.74249" y="15.6732" width="39.0279" height="23.9199" filterUnits="userSpaceOnUse" color-interpolation-filters="sRGB">
<feFlood flood-opacity="0" result="BackgroundImageFix"/>
<feBlend mode="normal" in="SourceGraphic" in2="BackgroundImageFix" result="shape"/>
<feGaussianBlur stdDeviation="0.5" result="effect1_foregroundBlur_17_77"/>
</filter>
<filter id="filter4_ii_17_77" x="8.34249" y="16.2732" width="37.8279" height="22.7199" filterUnits="userSpaceOnUse" color-interpolation-filters="sRGB">
<feFlood flood-opacity="0" result="BackgroundImageFix"/>
<feBlend mode="normal" in="SourceGraphic" in2="BackgroundImageFix" result="shape"/>
<feColorMatrix in="SourceAlpha" type="matrix" values="0 0 0 0 0 0 0 0 0 0 0 0 0 0 0 0 0 0 127 0" result="hardAlpha"/>
<feOffset dx="-0.4" dy="0.4"/>
<feGaussianBlur stdDeviation="0.375"/>
<feComposite in2="hardAlpha" operator="arithmetic" k2="-1" k3="1"/>
<feColorMatrix type="matrix" values="0 0 0 0 0.913725 0 0 0 0 0.886275 0 0 0 0 0.968627 0 0 0 1 0"/>
<feBlend mode="normal" in2="shape" result="effect1_innerShadow_17_77"/>
<feColorMatrix in="SourceAlpha" type="matrix" values="0 0 0 0 0 0 0 0 0 0 0 0 0 0 0 0 0 0 127 0" result="hardAlpha"/>
<feOffset dx="0.4" dy="-0.4"/>
<feGaussianBlur stdDeviation="0.2"/>
<feComposite in2="hardAlpha" operator="arithmetic" k2="-1" k3="1"/>
<feColorMatrix type="matrix" values="0 0 0 0 1 0 0 0 0 0.988235 0 0 0 0 1 0 0 0 1 0"/>
<feBlend mode="normal" in2="effect1_innerShadow_17_77" result="effect2_innerShadow_17_77"/>
</filter>
<linearGradient id="paint0_linear_17_77" x1="27.4033" y1="10.1453" x2="27.4033" y2="66.2597" gradientUnits="userSpaceOnUse">
<stop stop-color="#9865EE"/>
<stop offset="1" stop-color="#7764C6"/>
</linearGradient>
<radialGradient id="paint1_radial_17_77" cx="0" cy="0" r="1" gradientUnits="userSpaceOnUse" gradientTransform="translate(47.1791 7.64609) rotate(136.771) scale(3.61875 4.22661)">
<stop stop-color="#BB8DFF"/>
<stop offset="1" stop-color="#BB8DFF" stop-opacity="0"/>
</radialGradient>
<linearGradient id="paint2_linear_17_77" x1="-nan" y1="-nan" x2="-nan" y2="-nan" gradientUnits="userSpaceOnUse">
<stop stop-color="#AE7EFF"/>
<stop offset="1" stop-color="#8777D6"/>
</linearGradient>
<linearGradient id="paint3_linear_17_77" x1="-nan" y1="-nan" x2="-nan" y2="-nan" gradientUnits="userSpaceOnUse">
<stop stop-color="#A672FF"/>
<stop offset="1" stop-color="#9A6CEB"/>
</linearGradient>
</defs>
</svg>
