<svg width="16" height="16" viewBox="0 0 16 16" fill="none" xmlns="http://www.w3.org/2000/svg">
<path d="M3 3C5.3325 1.834 7.25 3.25 8 4.25C8.75 3.25 10.6675 1.834 13 3C16 4.5 15.25 8.25 13 10.5C11.902 11.598 9.9685 13.5315 8.5545 14.607C8.39654 14.727 8.20276 14.7902 8.00444 14.7865C7.80612 14.7828 7.61484 14.7123 7.4615 14.5865C6.165 13.54 4.0825 11.5825 3 10.5C0.749996 8.25 -4.29153e-06 4.5 3 3Z" fill="#F8312F"/>
<path d="M8 4.25V5.775C8.635 4.4325 10.2125 2.64 12.829 2.9185C10.574 1.9035 8.7315 3.2745 8 4.25ZM5.973 2.7685C5.13 2.475 4.1125 2.4435 3 3C-4.29153e-06 4.5 0.749996 8.25 3 10.5C4.0825 11.5825 6.165 13.54 7.4615 14.5865C7.61489 14.7123 7.8062 14.7826 8.00452 14.7863C8.20285 14.7899 8.3966 14.7266 8.5545 14.6065C8.6815 14.5098 8.81233 14.4068 8.947 14.2975C7.52 13.226 5.517 11.538 4.4295 10.5665C1.951 8.351 1.1245 4.659 4.4295 3.182C4.91759 2.95978 5.43917 2.82005 5.973 2.7685Z" fill="#CA0B4A"/>
<path d="M10.5433 8.36723C11.2215 8.7588 12.3064 8.14936 12.9665 7.006C13.6267 5.86264 13.612 4.61833 12.9338 4.22676C12.2556 3.83519 11.1706 4.44464 10.5105 5.588C9.85038 6.73136 9.86505 7.97566 10.5433 8.36723Z" fill="#F37366"/>
</svg>
