<svg width="752" height="362" viewBox="0 0 752 362" fill="none" xmlns="http://www.w3.org/2000/svg">
<path d="M304.611 310.078C316.784 308.117 328.723 304.998 340.547 301.908C343.834 301.049 347.112 300.192 350.383 299.364L350.391 299.362C382.202 291.176 413.715 281.97 444.93 271.742L444.932 271.741L445.928 271.413C461.528 266.28 477.125 261.148 492.429 254.964C491.879 256.163 491.124 257.543 490.287 258.965C489.391 260.487 488.429 262.012 487.573 263.36C487.481 263.505 487.389 263.648 487.299 263.79C486.569 264.939 485.914 265.97 485.506 266.682C484.156 269.041 482.816 271.4 481.478 273.755C475.554 284.181 469.673 294.532 463.162 304.552C450.77 323.623 436.795 341.671 422.559 359.505C418.6 358.455 414.674 357.13 410.704 355.79C408.9 355.181 407.088 354.569 405.259 353.979L405.259 353.979C381.588 346.337 358.918 337.053 336.235 326.753C334.082 325.704 331.782 324.631 329.397 323.518C325.625 321.757 321.642 319.898 317.697 317.882C312.885 315.423 308.327 312.824 304.611 310.078Z" fill="#C8B2F5" stroke="#7979DD" stroke-width="4"/>
<path d="M621.185 28.5971L621.196 28.5966C627.279 28.2927 633.385 28.3033 639.538 28.3141C640.63 28.316 641.724 28.3179 642.82 28.318C657.453 28.3195 677.119 28.6647 695.78 31.7104C714.524 34.7698 731.836 40.4934 742.128 50.9387L743.552 49.5351L742.128 50.9388C747.135 56.0214 749.83 62.3212 749.724 69.4254C749.597 78.0038 746.08 86.4508 740.951 94.3248C735.828 102.188 729.19 109.34 723.028 115.298L724.418 116.736L723.028 115.298C699.586 137.967 668.256 157.147 639.514 173.017C622.065 182.593 604.347 191.641 586.358 200.16C568.371 208.677 550.146 216.651 531.684 224.081C517.876 229.563 503.901 234.508 489.875 239.471C486.009 240.838 482.14 242.207 478.269 243.59L478.264 243.591C456.877 251.288 435.324 258.491 413.606 265.199C391.888 271.907 370.027 278.113 348.024 283.818C326.021 289.522 303.899 294.719 281.658 299.409C259.418 304.098 237.082 308.274 214.651 311.938C177.322 317.736 136.928 321.234 99.2318 320.677C86.0048 320.482 68.0421 319.469 51.0391 316.031C33.9504 312.576 18.2217 306.745 9.08427 297.193C4.01319 291.891 1.81485 284.88 2.01212 277.437C2.24126 268.791 6.69663 259.861 12.8778 251.468C19.0258 243.12 26.6992 235.545 33.0288 229.611C59.1064 206.488 88.8697 188.775 119.418 171.814C121.89 170.441 124.356 169.059 126.819 167.679C134.824 163.194 142.81 158.719 150.938 154.594C152.175 162.521 154.3 170.62 156.379 178.145L158.307 177.612L156.38 178.145C156.751 179.488 157.23 180.98 157.702 182.449C158.041 183.502 158.376 184.543 158.664 185.509C159.342 187.782 159.868 189.944 160.023 191.961C159.93 192.107 159.789 192.307 159.58 192.565C159.197 193.037 158.674 193.594 158.028 194.223C156.737 195.48 155.064 196.918 153.286 198.385C152.113 199.353 150.876 200.347 149.688 201.302C147.379 203.157 145.251 204.866 144.131 205.952L144.131 205.952C140.718 209.26 135.875 214.551 131.88 220.28C129.881 223.146 128.068 226.162 126.754 229.126C125.448 232.07 124.581 235.087 124.609 237.92V237.921C124.669 243.68 127.954 248.78 131.581 252.42C139.983 260.857 153.133 264.883 166.492 266.872C179.365 268.789 192.82 268.863 203.165 268.92C203.606 268.922 204.041 268.925 204.471 268.927C228.151 269.067 251.231 267.661 274.705 264.244C290.367 261.965 305.956 258.795 321.384 255.609C398.151 239.758 477.71 214.053 547.219 177.393C569.843 165.46 595.028 150.674 613.474 132.281C617.123 128.644 621.517 123.393 624.975 117.67C628.401 112.002 631.077 105.596 630.91 99.7204C630.753 94.1845 627.412 89.9914 623.943 86.8191C614.32 78.0191 598.768 74.0789 583.04 72.4097C567.923 70.8053 552.225 71.2627 540.552 71.8234C538.659 64.9662 536.217 58.0012 533.239 51.5389L531.422 52.3761L533.238 51.5386C532.229 49.3494 531.143 47.1947 530.076 45.0764C529.85 44.6281 529.625 44.1815 529.402 43.7365C528.512 41.9631 527.645 40.207 526.836 38.436C558.254 34.0006 589.541 29.9997 621.185 28.5971Z" fill="#EECBC0" stroke="#7979DD" stroke-width="4"/>
<path d="M338.379 100.766C338.599 100.761 339.459 100.739 340.14 100.025C340.141 100.023 340.143 100.022 340.144 100.02L340.144 100.02C340.369 99.734 340.58 99.3059 340.616 99.1939C340.631 99.1391 340.651 99.0515 340.658 99.0189C340.669 98.9631 340.674 98.9185 340.676 98.9048L340.676 98.9043C340.68 98.8757 340.683 98.8511 340.684 98.8377L340.685 98.8308C340.688 98.8047 340.69 98.7784 340.691 98.7592C340.695 98.7173 340.699 98.6616 340.704 98.5971C340.714 98.4662 340.727 98.2776 340.744 98.0413C340.759 97.8296 340.777 97.5772 340.796 97.29C340.821 96.9351 340.849 96.527 340.881 96.0768L340.884 96.0305C340.996 94.4051 341.146 92.2362 341.305 90.0113C341.631 85.4378 341.979 80.8485 342.11 80.0322C344.82 63.173 350.564 47.4186 361.645 34.4937C380.06 13.0134 400.516 4.43721 428.668 2.16465C436.504 1.64814 444.674 2.37324 452.411 3.96971L452.815 2.01105L452.411 3.96974C477.909 9.22885 497.991 23.7932 512.123 45.4442L513.798 44.351L512.123 45.4442C517.814 54.1612 521.427 63.2203 524.57 73.2415C532.708 99.1901 532.774 125.716 527.991 152.487C527.239 156.7 526.299 160.819 525.348 164.99C524.822 167.3 524.291 169.626 523.787 171.992C520.655 173.771 517.263 175.256 513.817 176.765C512.387 177.391 510.947 178.022 509.513 178.679L509.513 178.679C499.438 183.298 489.446 187.799 479.198 191.897C409.078 219.929 327.422 242.569 252.471 250.552L252.683 252.541L252.471 250.552C250.605 250.751 248.274 251.069 245.758 251.412L245.647 251.427C243.075 251.778 240.294 252.156 237.536 252.475C232.122 253.1 227.077 253.456 223.95 253.023C220.106 250.745 216.678 247.168 213.262 243.603C212.423 242.728 211.585 241.853 210.742 240.999L210.741 240.999C189.9 219.89 179.098 201.108 171.174 172.544L169.247 173.079L171.174 172.544C163.802 145.97 165.209 119.154 178.921 95.1341C179.26 94.549 179.606 93.968 179.958 93.3913C180.312 92.8129 180.673 92.2393 181.041 91.6707L181.041 91.6699C181.409 91.1005 181.784 90.5358 182.166 89.9756L182.166 89.9752C182.548 89.4152 182.936 88.8598 183.331 88.3089C183.726 87.7583 184.128 87.2126 184.537 86.6718L184.538 86.6706C184.946 86.1297 185.361 85.5938 185.782 85.0627C186.204 84.5322 186.632 84.0065 187.067 83.4857C187.501 82.9656 187.941 82.4507 188.389 81.941C188.836 81.4313 189.289 80.927 189.748 80.4284C190.207 79.9297 190.673 79.4369 191.144 78.9499C191.616 78.4627 192.093 77.9809 192.577 77.5047C193.06 77.0291 193.548 76.5597 194.043 76.0965C194.537 75.633 195.038 75.1757 195.543 74.7245L195.545 74.7236C196.05 74.2721 196.561 73.8272 197.077 73.3887C197.594 72.9497 198.116 72.5168 198.644 72.0901C199.171 71.6638 199.703 71.2444 200.24 70.8318L200.24 70.8316C200.778 70.418 201.321 70.0109 201.869 69.6104C202.415 69.2108 202.967 68.8177 203.524 68.4311C204.081 68.045 204.643 67.6654 205.209 67.2922C205.776 66.9192 206.346 66.5534 206.921 66.1947C207.497 65.8359 208.077 65.4839 208.661 65.1388C209.244 64.7945 209.832 64.457 210.424 64.1263C211.016 63.7962 211.612 63.4733 212.211 63.1576L212.212 63.1572C212.812 62.8411 213.415 62.5327 214.022 62.2323L214.023 62.2315C214.63 61.9303 215.241 61.637 215.855 61.3514L215.856 61.3507C216.47 61.0645 217.088 60.7861 217.709 60.5156L217.711 60.5145C218.332 60.2433 218.956 59.9799 219.583 59.7242C220.211 59.4683 220.842 59.2203 221.475 58.98C222.109 58.7398 222.746 58.5072 223.385 58.282C224.025 58.0573 224.667 57.8401 225.312 57.6305C225.957 57.4215 226.605 57.2203 227.255 57.0269C227.902 56.8341 228.553 56.6491 229.205 56.4718C262.545 47.6595 297.02 58.1095 321.256 82.4032C322.635 83.7858 324.94 86.6983 327.449 89.8673C327.971 90.5262 328.501 91.1963 329.034 91.866C330.547 93.7692 332.06 95.6418 333.371 97.144C334.026 97.8947 334.649 98.5741 335.211 99.128C335.743 99.6523 336.326 100.173 336.892 100.504L337.521 100.872L338.142 100.766C338.154 100.766 338.168 100.766 338.189 100.767C338.233 100.767 338.302 100.768 338.378 100.766H338.379Z" fill="#B8FBF6" stroke="#7979DD" stroke-width="4"/>
</svg>
