<svg width="16" height="16" viewBox="0 0 16 16" fill="none" xmlns="http://www.w3.org/2000/svg">
<path d="M10.5 8C9.85753 8 9.23628 7.71313 8.75003 7.1925C8.27721 6.68469 7.98846 6.0075 7.93753 5.28625C7.88315 4.51688 8.11784 3.80938 8.59815 3.29375C9.07846 2.77813 9.75003 2.5 10.5 2.5C11.2447 2.5 11.9182 2.78312 12.3969 3.2975C12.8803 3.81687 13.1157 4.52312 13.0613 5.28594C13.0091 6.00812 12.7207 6.685 12.2488 7.19219C11.7638 7.71312 11.1428 8 10.5 8ZM14.6197 13.5H6.38065C6.24818 13.5007 6.11732 13.471 5.99813 13.4132C5.87895 13.3554 5.77461 13.271 5.69315 13.1666C5.60674 13.0533 5.54708 12.922 5.51861 12.7824C5.49014 12.6429 5.49362 12.4987 5.52878 12.3606C5.7919 11.3041 6.44378 10.4278 7.41378 9.82687C8.27471 9.29375 9.37065 9 10.5 9C11.6516 9 12.7188 9.28125 13.5847 9.81406C14.5569 10.4119 15.2097 11.2931 15.4716 12.3625C15.5063 12.5006 15.5094 12.6448 15.4806 12.7843C15.4518 12.9238 15.3919 13.055 15.3053 13.1681C15.224 13.2721 15.1199 13.3561 15.001 13.4136C14.8822 13.4711 14.7517 13.5007 14.6197 13.5ZM4.59378 8.125C3.49409 8.125 2.52721 7.1025 2.43753 5.84594C2.39315 5.20219 2.59378 4.60687 3.00003 4.17031C3.4019 3.73812 3.96878 3.5 4.59378 3.5C5.21878 3.5 5.78127 3.73938 6.18534 4.17406C6.59471 4.61406 6.79471 5.20812 6.74784 5.84656C6.65815 7.10281 5.69159 8.125 4.59378 8.125ZM6.64565 9.10781C6.09596 8.83906 5.38252 8.70469 4.59409 8.70469C3.67346 8.70469 2.7794 8.94469 2.07628 9.38031C1.27909 9.875 0.742838 10.5953 0.526275 11.465C0.494583 11.5901 0.491586 11.7207 0.517507 11.8471C0.543429 11.9736 0.597598 12.0925 0.675963 12.195C0.750322 12.2905 0.845583 12.3676 0.954421 12.4205C1.06326 12.4733 1.18277 12.5006 1.30378 12.5H4.77253C4.83107 12.5 4.88776 12.4794 4.9327 12.4419C4.97765 12.4044 5.008 12.3523 5.01846 12.2947C5.0219 12.275 5.02628 12.2553 5.03128 12.2359C5.29628 11.1716 5.91721 10.2722 6.83471 9.61656C6.86846 9.59224 6.8956 9.55988 6.91368 9.52241C6.93176 9.48495 6.9402 9.44356 6.93825 9.40201C6.93629 9.36046 6.924 9.32005 6.90248 9.28445C6.88097 9.24884 6.85091 9.21917 6.81503 9.19812C6.76596 9.16937 6.70971 9.13906 6.64565 9.10781Z" fill="#979797"/>
</svg>
